<?xml version="1.0" encoding="UTF-8" standalone="no"?>
<svg
   height="48px"
   viewBox="0 0 24 24"
   width="48px"
   version="1.1"
   id="svg2"
   xml:space="preserve"
   xmlns="http://www.w3.org/2000/svg"
   xmlns:svg="http://www.w3.org/2000/svg"><defs
     id="defs2" /><g
     id="g4"
     transform="matrix(0.92307692,0,0,0.92307692,-2.7692306,4.6153848)"><path
       d="M 19,3 H 4.9999998 c -1.1,0 -2,0.9 -2,2 v 14 c 0,1.1 0.9,2 2,2 H 19 c 1.1,0 2,-0.9 2,-2 V 5 C 21,3.9 20.1,3 19,3 Z M 14,17 H 6.9999998 V 15 H 14 Z m 3,-4 H 6.9999998 V 11 H 17 Z M 17,9 H 6.9999998 V 7 H 17 Z"
       id="path2" /><path
       id="path1-2"
       style="fill:#000000"
       d="M 9,-1 C 7.9000011,-1 7,-0.0999989 7,1 V 3 H 9 V 1 h 14 v 14 h -2 v 2 h 2 c 1.099999,0 2,-0.900001 2,-2 V 1 c 0,-1.0999989 -0.900001,-2 -2,-2 z" /><path
       id="path1-2-9"
       style="fill:#000000"
       d="m 13,-5 c -1.099999,0 -2,0.9000011 -2,2 v 2 h 2 v -2 h 14 v 14 h -2 v 2 h 2 c 1.099999,0 2,-0.900001 2,-2 V -3 c 0,-1.0999989 -0.900001,-2 -2,-2 z" /></g></svg>
