<?xml version="1.0" encoding="UTF-8" standalone="no"?>
<svg
   height="48px"
   viewBox="0 0 24 24"
   width="48px"
   version="1.1"
   id="svg2"
   xmlns="http://www.w3.org/2000/svg"
   xmlns:svg="http://www.w3.org/2000/svg">
  <defs
     id="defs2" />
  <path
     d="M0 0h24v24H0V0z"
     fill="none"
     id="path1" />
  <g
     id="g2"
     transform="matrix(0.9897568,0,0,0.9897568,-2.8461862,3.0923455)">
    <path
       d="M 10.175126,4.700512 H 4.7005097 c -1.0036796,0 -1.8157477,0.8211924 -1.8157477,1.824872 l -0.00912,10.949232 c 0,1.00368 0.8211925,1.824872 1.8248721,1.824872 H 19.299486 c 1.00368,0 1.824872,-0.821192 1.824872,-1.824872 V 8.3502562 c 0,-1.0036798 -0.821192,-1.8248723 -1.824872,-1.8248723 h -7.299488 z"
       id="path2"
       style="stroke-width:0.912436" />
    <path
       d="m 12.417782,3.5253838 1.824873,1.8248722 h 8.056809 v 9.12436 H 7.7004872 V 3.5253838 h 4.7172948 m 0.757322,-1.824872 H 7.7004872 c -1.0036789,0 -1.8157479,0.8211924 -1.8157479,1.824872 l -0.0091,10.9492322 c 0,1.00368 0.8211931,1.824872 1.824872,1.824872 H 22.299489 c 1.003679,0 1.824872,-0.821192 1.824872,-1.824872 v -9.12436 c 0,-1.0036797 -0.821193,-1.8248722 -1.824872,-1.8248722 h -7.299488 z"
       id="path2-1"
       style="stroke-width:0.912436" />
    <path
       id="path2-1-0"
       style="stroke-width:0.912436"
       d="m 10.700195,-1.2998047 c -1.0036777,0 -1.8154294,0.82151673 -1.8154294,1.82519532 L 8.8837891,1.7001953 H 10.700195 V 0.52539062 h 4.717774 l 1.824219,1.82519528 h 8.057617 v 9.1240231 h -1.175782 v 1.825196 h 1.175782 c 1.003677,0 1.824218,-0.821517 1.824218,-1.825196 V 2.3505859 c 0,-1.0036787 -0.820541,-1.82519527 -1.824218,-1.82519528 H 18 L 16.174805,-1.2998047 Z" />
  </g>
</svg>
